<svg xmlns="http://www.w3.org/2000/svg" width="410.755" height="482.9" viewBox="0 0 410.755 482.9">
  <g id="avatar" transform="translate(-36.073)">
    <g id="Group_42" data-name="Group 42">
      <path id="Path_45" data-name="Path 45" d="M239.7,260.2h3.2c29.3-.5,53-10.8,70.5-30.5,38.5-43.4,32.1-117.8,31.4-124.9-2.5-53.3-27.7-78.8-48.5-90.7C280.8,5.2,262.7.4,242.5,0h-1.7C229.7,0,207.9,1.8,187,13.7c-21,11.9-46.6,37.4-49.1,91.1-.7,7.1-7.1,81.5,31.4,124.9C186.7,249.4,210.4,259.7,239.7,260.2ZM164.6,107.3c0-.3.1-.6.1-.8,3.3-71.7,54.2-79.4,76-79.4h1.2c27,.6,72.9,11.6,76,79.4a1.949,1.949,0,0,0,.1.8c.1.7,7.1,68.7-24.7,104.5-12.6,14.2-29.4,21.2-51.5,21.4h-1c-22-.2-38.9-7.2-51.4-21.4C157.7,176.2,164.5,107.9,164.6,107.3Z" fill="#2d4a86"/>
      <path id="Path_46" data-name="Path 46" d="M446.8,383.6v-.3c0-.8-.1-1.6-.1-2.5-.6-19.8-1.9-66.1-45.3-80.9-.3-.1-.7-.2-1-.3-45.1-11.5-82.6-37.5-83-37.8a13.5,13.5,0,0,0-15.5,22.1c1.7,1.2,41.5,28.9,91.3,41.7,23.3,8.3,25.9,33.2,26.6,56a20.082,20.082,0,0,0,.1,2.5c.1,9-.5,22.9-2.1,30.9-16.2,9.2-79.7,41-176.3,41-96.2,0-160.1-31.9-176.4-41.1-1.6-8-2.3-21.9-2.1-30.9,0-.8.1-1.6.1-2.5.7-22.8,3.3-47.7,26.6-56,49.8-12.8,89.6-40.6,91.3-41.7a13.5,13.5,0,1,0-15.5-22.1c-.4.3-37.7,26.3-83,37.8-.4.1-.7.2-1,.3C38.1,314.7,36.8,361,36.2,380.7a20.083,20.083,0,0,1-.1,2.5v.3c-.1,5.2-.2,31.9,5.1,45.3a12.83,12.83,0,0,0,5.2,6.3c3,2,74.9,47.8,195.2,47.8S433.8,437,436.8,435.1a13.382,13.382,0,0,0,5.2-6.3C447,415.5,446.9,388.8,446.8,383.6Z" fill="#2d4a86"/>
    </g>
  </g>
</svg>
