<svg height="512pt" viewBox="0 0 512 512" width="512pt" xmlns="http://www.w3.org/2000/svg"><path d="m492 0h-472c-11.046875 0-20 8.953125-20 20v472c0 11.046875 8.953125 20 20 20h472c11.046875 0 20-8.953125 20-20 0-21.453125 0-464.078125 0-472 0-11.046875-8.953125-20-20-20zm-20 472h-432v-346h432zm0-386h-432v-46h432zm-379 313h167.179688c11.046874 0 20-8.953125 20-20v-160c0-11.046875-8.953126-20-20-20h-167.179688c-11.046875 0-20 8.953125-20 20v160c0 11.046875 8.953125 20 20 20zm20-160h127.179688v120h-127.179688zm212.859375 60c0-11.046875 8.953125-20 20-20h73.140625c11.046875 0 20 8.953125 20 20s-8.953125 20-20 20h-73.140625c-11.046875 0-20-8.953125-20-20zm0 80c0-11.046875 8.953125-20 20-20h73.140625c11.046875 0 20 8.953125 20 20s-8.953125 20-20 20h-73.140625c-11.046875 0-20-8.953125-20-20zm0 0"/></svg>