<?xml version="1.0"?>
<svg xmlns="http://www.w3.org/2000/svg" xmlns:xlink="http://www.w3.org/1999/xlink" version="1.1" id="Capa_1" x="0px" y="0px" width="512px" height="512px" viewBox="0 0 612 612" style="color: rgb(171, 178, 191);" xml:space="preserve" class=""><g><g>
	<g>
		<path d="M587.572,186.882C555.3,111.658,500.471,56.949,424.618,24.598C386.706,8.43,347.324,0.171,305.836,0.171    c-41.496,0-80.914,8.181-118.79,24.427C111.83,56.864,56.415,111.537,24.092,186.882C7.902,224.629,0,264.176,0,305.664    c0,41.495,7.902,81.37,24.092,119.124c32.323,75.346,87.738,130.348,162.955,162.619c37.876,16.248,77.294,24.422,118.79,24.422    c41.488,0,80.87-8.26,118.782-24.422c75.853-32.35,130.682-87.402,162.954-162.619C603.819,386.913,612,347.159,612,305.664    C612,264.176,603.819,224.758,587.572,186.882z M553.444,410.397c-14.198,33.064-33.044,61.99-57.222,85.996    c-24.006,23.842-52.866,42.83-85.995,57.215c-33.122,14.391-67.922,21.414-104.392,21.414c-48.52,0-93.355-12.043-134.515-36.135    c-41.153-24.092-74.018-56.842-98.039-98.037c-24.163-41.453-36.142-86.668-36.142-135.187c0-48.52,12.05-93.355,36.142-134.508    c24.092-41.16,56.886-73.946,98.039-98.038c41.16-24.092,85.996-36.142,134.515-36.142c36.47,0,71.27,7.024,104.392,21.415    c33.129,14.391,61.817,33.543,85.995,57.55c24.007,23.842,43.023,52.595,57.222,85.66c14.241,33.186,21.415,67.593,21.415,104.063    C574.859,342.142,567.686,377.212,553.444,410.397z" data-original="#000000" class="active-path" data-old_color="#000000" fill="#778899"/>
		<path d="M397.514,233.06c-1.749-5.239-5.689-10.379-11.043-11.714l-232.218-82.312c-7.203-2.555-13.385-1.342-19.738,5.019    c-5.018,5.018-6.389,13.063-3.683,19.745l90.678,223.517c1.92,4.717,5.283,8.209,10.037,10.035l217.499,83.648    c1.335,1.006,3.676,1.342,6.688,1.342c5.018,0,9.258-1.793,12.385-4.684c5.91-5.475,7.203-11.527,4.683-19.074L397.514,233.06z     M252.962,365.897l31.459-32.123c-1.007-0.336-2.013-1.342-3.348-2.676c-13.72-13.721-13.72-36.478,0-50.19    c13.72-13.72,36.134-13.72,49.854,0c1.007,1,2.006,2.341,2.678,3.676l31.787-31.787l60.233,179.686L252.962,365.897z" data-original="#000000" class="active-path" data-old_color="#000000" fill="#778899"/>
	</g>
</g></g> </svg>
