<svg xmlns="http://www.w3.org/2000/svg" width="49.813" height="37.834" viewBox="0 0 49.813 37.834">
  <path id="message" d="M43.9,45.945H5.912A5.805,5.805,0,0,0,0,51.623V78.1a5.805,5.805,0,0,0,5.912,5.678H43.9A5.805,5.805,0,0,0,49.812,78.1V51.623A5.805,5.805,0,0,0,43.9,45.945Zm0,32.821H5.912c-.479,0-.9-.311-.9-.665V55.124L22.194,69.629a1.957,1.957,0,0,0,1.261.461h2.9a1.958,1.958,0,0,0,1.261-.461L44.8,55.124V78.1C44.8,78.455,44.379,78.766,43.9,78.766ZM24.906,65.113,8.2,50.958H41.617Z" transform="translate(0 -45.945)" fill="#2d4a86"/>
</svg>
