<svg xmlns="http://www.w3.org/2000/svg" width="42.505" height="50" viewBox="0 0 42.505 50">
  <defs>
    <style>
      .cls-1 {
        fill: #2d4a86;
      }
    </style>
  </defs>
  <g id="Group_9" data-name="Group 9" transform="translate(-99.146 -62.204)">
    <path id="Path_10" data-name="Path 10" class="cls-1" d="M141.019,154.479h-8.41a1.116,1.116,0,0,0-1.068,1.456,5.563,5.563,0,0,0,10.547,0A1.116,1.116,0,0,0,141.019,154.479Z" transform="translate(-16.654 -47.522)"/>
    <path id="Path_11" data-name="Path 11" class="cls-1" d="M141.145,100.46l-5.709-4.67V82.307A15.4,15.4,0,0,0,123.7,67.4V65.778a3.574,3.574,0,0,0-7.148,0V67.39A15.4,15.4,0,0,0,104.76,82.307V95.739h-.027l-5.166,4.829a2.31,2.31,0,0,0,2.147,3.57h37.37C141.186,104.138,142.394,101.984,141.145,100.46Z" transform="translate(0 0)"/>
  </g>
</svg>
