<svg xmlns="http://www.w3.org/2000/svg" width="47.405" height="55.5" viewBox="0 0 47.405 55.5">
  <path id="Path_1" data-name="Path 1" d="M415.924,194.018h-4.161c0,3.9-2.606,7.064-5.82,7.064s-5.82-3.163-5.82-7.064H396.8l-12.474,7.8,5.858,10.868,2.456-1.514v32.291c0,1.115,6.145,2.018,13.725,2.018s13.721-.9,13.721-2.018V211.173l3.435,1.514,4.882-10.868Zm13.933,8.769L424.98,213.65a1.649,1.649,0,0,1-1.463,1.054,1.434,1.434,0,0,1-.567-.121l-1.2-.53v29.41c0,2.427-2.481,2.992-5.482,3.431a81.3,81.3,0,0,1-19.808,0c-3-.439-5.482-1-5.482-3.431V214.457l-.042.03a1.428,1.428,0,0,1-.75.217,1.614,1.614,0,0,1-1.393-.913l-5.858-10.868a2.373,2.373,0,0,1-.217-1.62,1.986,1.986,0,0,1,.846-1.277l12.474-7.805A1.444,1.444,0,0,1,396.8,192h3.327a1.868,1.868,0,0,1,1.664,2.018c0,2.78,1.864,5.045,4.157,5.045s4.161-2.265,4.161-5.045A1.865,1.865,0,0,1,411.764,192h4.161a1.454,1.454,0,0,1,.763.222l12.474,7.805a1.959,1.959,0,0,1,.826,1.2A2.381,2.381,0,0,1,429.858,202.787Z" transform="translate(-382.657 -192)" fill="#2d4a86" fill-rule="evenodd"/>
</svg>
