<svg xmlns="http://www.w3.org/2000/svg" width="57.368" height="55.5" viewBox="0 0 57.368 55.5">
  <path id="Path_2" data-name="Path 2" d="M782.916,193.027h-2.064a1.07,1.07,0,0,1,.035.358,18.332,18.332,0,0,1-3.063,7.407,1.023,1.023,0,0,1-.732.313h-.02c-2.5-.056-5.091-3.2-5.737-3.951-.646.747-3.234,3.9-5.737,3.951h-.02a1.023,1.023,0,0,1-.732-.313,18.332,18.332,0,0,1-3.063-7.407,1.07,1.07,0,0,1,.035-.358h-2.054l-15.1,7.8,7.089,10.868,2.972-1.514v31.282c0,1.115,7.437,2.018,16.61,2.018s16.6-.9,16.6-2.018V210.182L792.1,211.7l5.908-10.868Zm-17.23-1.009a1.6,1.6,0,0,1-1.428.964,2.576,2.576,0,0,1-1.463.3,17.891,17.891,0,0,0,2.785,6.816c1.761-.035,3.719-2.064,4.642-3.138C767.518,196.226,765.686,192.018,765.686,192.018Zm12.745.969a1.59,1.59,0,0,1-1.433-.969s-1.836,4.218-4.541,4.939c.918,1.08,2.881,3.1,4.637,3.138a17.891,17.891,0,0,0,2.785-6.816A2.548,2.548,0,0,1,778.431,192.987Zm21.347,8.809-5.9,10.863a2.016,2.016,0,0,1-1.771,1.054,2.05,2.05,0,0,1-.686-.121l-1.458-.53v28.4c0,2.427-3,2.987-6.635,3.431a118.931,118.931,0,0,1-23.971,0c-3.628-.439-6.635-1-6.635-3.431v-28l-.05.03a2.011,2.011,0,0,1-2.593-.7l-7.089-10.868a2.017,2.017,0,0,1,.762-2.9l15.1-7.805a2.025,2.025,0,0,1,.923-.222h3.264l.515.005.373.005h.015A2.017,2.017,0,0,1,765.6,190h.086a2.02,2.02,0,0,1,1.847,1.211c.656,1.509,2.225,3.713,3.38,3.835h.858c1.155-.116,2.7-2.291,3.38-3.84a2.014,2.014,0,0,1,1.847-1.2l.091.005a2.016,2.016,0,0,1,1.655,1.009l.429-.005c.2-.005.414-.01.636-.01h3.108a2.041,2.041,0,0,1,.923.222l15.1,7.805a2.023,2.023,0,0,1,.843,2.76Z" transform="translate(-742.657 -190)" fill="#2d4a86" fill-rule="evenodd"/>
</svg>
