<svg xmlns="http://www.w3.org/2000/svg" width="57.963" height="54.651" viewBox="0 0 57.963 54.651">
  <path id="Path_5" data-name="Path 5" d="M976.749,755.456l-15.8-17.215a1.221,1.221,0,0,0-.478-.381c-.449-.2-.942-.4-1.508-.6a20.281,20.281,0,0,0-2.093-.62c-.137-.034-.278-.063-.42-.093l-5.211,5.211.063.063-.263.263v27h-.976v-27l-.263-.263.063-.063-5.211-5.211c-.512.107-.976.215-1.381.317-.708.181-1.352.366-1.844.537-.786.249-1.239.444-1.259.449a1.205,1.205,0,0,0-.4.278l-16.415,17.132a1.294,1.294,0,0,0,0,1.781l5.294,5.475a1.146,1.146,0,0,0,.8.376l.068,0a1.2,1.2,0,0,0,.869-.376l8.081-8.481-1.84,26.93a1.254,1.254,0,0,0,.952,1.332l10.389,2.372a1.293,1.293,0,0,0,.268.029,1.226,1.226,0,0,0,1.122-.771l.981-2.425.829,2.318a1.226,1.226,0,0,0,1.142.825,1.128,1.128,0,0,0,.254-.029l10.574-2.318a1.25,1.25,0,0,0,.961-1.332l-1.815-26.618,7.393,8.315a1.228,1.228,0,0,0,.873.4h.034a1.2,1.2,0,0,0,.854-.371l5.294-5.475A1.3,1.3,0,0,0,976.749,755.456Zm-22.827-21.5h-6.788a1.94,1.94,0,0,0-1.923,1.771l5.343,5.348,5.294-5.294A1.939,1.939,0,0,0,953.922,733.952Zm24.2,24.627-5.294,5.475a3.149,3.149,0,0,1-2.245.961h-.073a3.147,3.147,0,0,1-2.279-1.054l-3.626-4.079,1.425,20.929a3.212,3.212,0,0,1-2.484,3.4l-10.559,2.308a2.862,2.862,0,0,1-.678.078,3.108,3.108,0,0,0-4.074.059,3.141,3.141,0,0,1-.693-.078L937.146,784.2a3.221,3.221,0,0,1-2.459-3.372l1.474-21.558-4.382,4.6a3.15,3.15,0,0,1-2.176.976l-.156,0a3.079,3.079,0,0,1-2.186-.966l-5.294-5.475a3.275,3.275,0,0,1-.01-4.5l16.415-17.127a3.071,3.071,0,0,1,1.054-.727c.137-.059.625-.259,1.4-.5.537-.185,1.22-.385,1.971-.576l.61-.146A3.888,3.888,0,0,1,947.135,732h6.788a3.893,3.893,0,0,1,3.728,2.82c.688.176,1.347.376,1.966.6.6.215,1.142.429,1.649.654a3.215,3.215,0,0,1,1.161.893l15.746,17.161A3.248,3.248,0,0,1,978.12,758.579Z" transform="translate(-921.066 -732)" fill="#2d4a86" fill-rule="evenodd"/>
</svg>
