<svg xmlns="http://www.w3.org/2000/svg" width="52.392" height="26.196" viewBox="0 0 52.392 26.196">
  <path id="Path_8" data-name="Path 8" d="M795.591,784.267a1.308,1.308,0,0,0-1.31-1.31H748a1.308,1.308,0,0,0-1.31,1.31v.873a1.308,1.308,0,0,0,1.31,1.31h46.28a1.308,1.308,0,0,0,1.31-1.31Zm-6.942-9.169H753.633a57.612,57.612,0,0,0-1.567,6.986h38.15A57.6,57.6,0,0,0,788.649,775.1Zm-7.715-11.352c-3.392,0-4.667,1.773-9.793,1.773s-6.4-1.773-9.793-1.773c-2.668,0-5.471,4.187-7.453,10.478h34.492C786.4,767.933,783.6,763.746,780.934,763.746Zm13.347,24.45H748a3.06,3.06,0,0,1-3.056-3.056v-.873A3.06,3.06,0,0,1,748,781.211h2.441a48.439,48.439,0,0,1,3.816-12.692c2.083-4.266,4.532-6.518,7.09-6.518a13,13,0,0,1,4.37.838,16.216,16.216,0,0,0,10.85,0,12.976,12.976,0,0,1,4.366-.838c2.558,0,5.012,2.253,7.09,6.518a48.439,48.439,0,0,1,3.816,12.692h2.441a3.06,3.06,0,0,1,3.056,3.056v.873A3.06,3.06,0,0,1,794.281,788.2Z" transform="translate(-744.945 -762)" fill="#2d4a86" fill-rule="evenodd"/>
</svg>
