<svg xmlns="http://www.w3.org/2000/svg" width="47.405" height="42.952" viewBox="0 0 47.405 42.952">
  <path id="Path_3" data-name="Path 3" d="M1124.586,220.635a.8.8,0,1,1,.8-.8A.8.8,0,0,1,1124.586,220.635Zm0,5.568a.8.8,0,1,1,.8-.8A.8.8,0,0,1,1124.586,226.2Zm14.21-30.221-10.475-2.39h-.06l-3.687,22.283-3.687-22.283h-.06l-10.475,2.39-7.9,26.4,7.047,3.046,3.222-11.677v18.04c0,.791,4.279,1.444,9.887,1.571l1.965-3.957,1.965,3.957c5.607-.127,9.887-.779,9.887-1.571V213.75l3.221,11.677,7.051-3.046Zm8.523,27.863-7.047,3.042a1.543,1.543,0,0,1-.624.131,1.523,1.523,0,0,1-.68-.159,1.572,1.572,0,0,1-.839-1.006l-.123-.437v6.375c0,1.953-2.613,2.362-4.176,2.609a58.326,58.326,0,0,1-7.254.553h-.036a1.591,1.591,0,0,1-1.416-.879l-.549-1.11-.549,1.11a1.587,1.587,0,0,1-1.416.879h-.032a58.34,58.34,0,0,1-7.258-.553c-1.563-.247-4.176-.656-4.176-2.609v-6.375l-.119.437a1.6,1.6,0,0,1-.839,1.006,1.541,1.541,0,0,1-.684.159,1.557,1.557,0,0,1-.624-.131l-7.047-3.042a1.594,1.594,0,0,1-.891-1.921l7.9-26.4a1.585,1.585,0,0,1,1.161-1.094l10.476-2.386a1.476,1.476,0,0,1,.35-.04h.06a1.587,1.587,0,0,1,1.559,1.332l2.128,12.862,2.128-12.862a1.587,1.587,0,0,1,1.559-1.332h.06a1.476,1.476,0,0,1,.35.04l10.475,2.386a1.585,1.585,0,0,1,1.161,1.094l7.9,26.4A1.594,1.594,0,0,1,1147.319,223.844Z" transform="translate(-1100.872 -192)" fill="#2d4a86" fill-rule="evenodd"/>
</svg>
