<svg xmlns="http://www.w3.org/2000/svg" width="29.392" height="56.942" viewBox="0 0 29.392 56.942">
  <path id="Path_4" data-name="Path 4" d="M793.788,369.9c-.386.94-3.421,2.828-5.507,2.847-.7.009-1.438.009-2.119.009-1.361,0-2.472-.009-2.472-.009s-1.111.009-2.472.009c-.68,0-1.42,0-2.114-.009-2.087-.019-5.126-1.908-5.507-2.847.032.1-2.776,1.9-2.754,1.9,1.052.071,2.8,4.062,2.754,5.694s.109,5.186.916,6.643a10.3,10.3,0,0,1,.907,4.745h16.54a10.356,10.356,0,0,1,.907-4.745c.812-1.457.971-5.006.921-6.643s1.7-5.623,2.754-5.694C796.56,371.8,793.752,370,793.788,369.9ZM770.843,407.86c0,6,2.754,15.185,2.754,15.185h20.192s2.754-9.187,2.754-15.185a22.4,22.4,0,0,0-2.754-11.388,14.566,14.566,0,0,1-1.837-6.643H775.429a14.612,14.612,0,0,1-1.833,6.643A22.4,22.4,0,0,0,770.843,407.86Zm27.477-35.594a1.869,1.869,0,0,1-1.17,1.319,9.291,9.291,0,0,0-1.529,3.844c.009.214.154,5.286-1.161,7.649-.621,1.12-.671,3.042-.671,4.75a12.649,12.649,0,0,0,1.638,5.789l.132.27a24.2,24.2,0,0,1,2.817,11.972c0,6.216-2.717,15.36-2.835,15.745a1.839,1.839,0,0,1-1.751,1.338H773.6a1.845,1.845,0,0,1-1.756-1.338c-.113-.384-2.835-9.528-2.835-15.745a24.2,24.2,0,0,1,2.817-11.972l.132-.27a12.663,12.663,0,0,0,1.642-5.789c0-1.708-.054-3.63-.676-4.75-1.311-2.363-1.166-7.436-1.161-7.649a9.173,9.173,0,0,0-1.529-3.844,1.879,1.879,0,0,1-1.17-1.319,2.122,2.122,0,0,1,1.247-2.373c.408-.266,1.588-1.034,1.973-1.324a1.8,1.8,0,0,1,.658-.441,1.76,1.76,0,0,1,.653-.128,1.823,1.823,0,0,1,1.633,1.03,7.352,7.352,0,0,0,3.892,1.817c.69.01,1.429.01,2.1.01,1.352,0,2.454-.01,2.486-.01,0,0,1.107.01,2.459.01.676,0,1.411,0,2.1-.01a7.334,7.334,0,0,0,3.892-1.817,1.834,1.834,0,0,1,1.633-1.03,1.8,1.8,0,0,1,.658.128,1.779,1.779,0,0,1,.653.441c.385.289,1.565,1.058,1.973,1.324A2.122,2.122,0,0,1,798.32,372.266Z" transform="translate(-768.994 -368)" fill="#2d4a86" fill-rule="evenodd"/>
</svg>
