<svg xmlns="http://www.w3.org/2000/svg" width="38.59" height="57.885" viewBox="0 0 38.59 57.885">
  <path id="Path_7" data-name="Path 7" d="M1159.16,777.576c0,1.351-7.776,2.45-17.365,2.45s-17.365-1.1-17.365-2.45v-.965c0,1.351,7.776,2.45,17.365,2.45s17.365-1.1,17.365-2.45V753.934c-3.651,0-6.618-6.01-6.744-13.521h-.01V727.934h-3.859V738a6.276,6.276,0,0,1-6.271,6.281h-.965a6.276,6.276,0,0,1-6.271-6.281V727.934h-3.859v12.479h-.01c-.125,7.511-3.092,13.521-6.744,13.521V779.5c0,1.355,7.776,2.455,17.365,2.455s17.365-1.1,17.365-2.455Zm-4.814,5.571a107.1,107.1,0,0,1-25.1,0c-4.163-.589-6.744-1.4-6.744-3.652V753.934a1.929,1.929,0,0,1,1.929-1.93c1.93,0,4.694-4.423,4.814-11.625,0-.063,0-.121.01-.183V727.934a1.933,1.933,0,0,1,1.929-1.934h3.859a1.933,1.933,0,0,1,1.93,1.934V738a4.349,4.349,0,0,0,4.341,4.346h.965a4.349,4.349,0,0,0,4.341-4.346V727.934a1.933,1.933,0,0,1,1.929-1.934h3.859a1.933,1.933,0,0,1,1.93,1.934V740.2c0,.063.01.121.01.183.121,7.2,2.885,11.625,4.814,11.625a1.929,1.929,0,0,1,1.93,1.93V779.5C1161.09,781.743,1158.509,782.558,1154.346,783.147Z" transform="translate(-1122.5 -726)" fill="#2d4a86" fill-rule="evenodd"/>
</svg>
